<!DOCTYPE svg PUBLIC "-//W3C//DTD SVG 1.1//EN" "http://www.w3.org/Graphics/SVG/1.1/DTD/svg11.dtd">
<!-- Uploaded to: SVG Repo, www.svgrepo.com, Transformed by: SVG Repo Mixer Tools -->
<svg fill="#454545" height="64px" width="64px" version="1.1" id="Layer_1" xmlns="http://www.w3.org/2000/svg" xmlns:xlink="http://www.w3.org/1999/xlink" viewBox="0 0 512 512" xml:space="preserve" stroke="#454545">
<g id="SVGRepo_bgCarrier" stroke-width="0"/>
<g id="SVGRepo_tracerCarrier" stroke-linecap="round" stroke-linejoin="round"/>
<g id="SVGRepo_iconCarrier"> <g> <g> <path d="M277.333,320h-42.667C211.136,320,192,339.136,192,362.667v42.667c0,23.53,19.136,42.666,42.667,42.666h42.667 c23.53,0,42.666-19.136,42.666-42.667v-42.667C320,339.136,300.864,320,277.333,320z"/> </g> </g> <g> <g> <path d="M384,192h-42.667c-23.531,0-42.667,19.136-42.667,42.667v42.667c0,23.531,19.136,42.667,42.667,42.667H384 c23.531,0,42.667-19.136,42.667-42.667v-42.667C426.667,211.136,407.531,192,384,192z"/> </g> </g> <g> <g> <path d="M469.333,64h-42.667C403.136,64,384,83.136,384,106.667v42.667c0,23.53,19.136,42.666,42.667,42.666h42.667 c23.53,0,42.666-19.136,42.666-42.667v-42.667C512,83.136,492.864,64,469.333,64z"/> </g> </g> <g> <g> <path d="M85.333,64H42.667C19.136,64,0,83.136,0,106.667v42.667C0,172.864,19.136,192,42.667,192h42.667 c23.53,0,42.666-19.136,42.666-42.667v-42.667C128,83.136,108.864,64,85.333,64z"/> </g> </g> <g> <g> <path d="M170.666,191.999H128c-23.531,0-42.667,19.136-42.667,42.667v42.667C85.333,300.864,104.469,320,128,320h42.667 c23.53,0,42.666-19.136,42.666-42.667v-42.667C213.333,211.135,194.197,191.999,170.666,191.999z"/> </g> </g> </g>
</svg>